<svg xmlns="http://www.w3.org/2000/svg" width="247" height="60" fill="none" viewBox="0 0 247 60"><g fill="currentColor"><path d="M47.051 15.386c1.888-1.09 1.89-3.815.003-4.907L30.711 1.017a7.56 7.56 0 0 0-7.574 0L3.771 12.23A7.56 7.56 0 0 0 0 18.77v18.873c0 2.182 2.362 3.545 4.251 2.455zm6.797 6.439c0-2.182-2.362-3.545-4.251-2.454l-13.722 7.922c-1.89 1.09-1.89 3.818 0 4.909l13.722 7.922c1.89 1.09 4.251-.273 4.251-2.454zm-6.357 27.443c1.887-1.092 1.885-3.817-.003-4.907L30.68 34.656a7.56 7.56 0 0 0-7.557 0L6.336 44.347c-1.888 1.09-1.89 3.815-.003 4.907l16.804 9.729a7.56 7.56 0 0 0 7.574 0zm197.744-23.64q.838 0 1.525.152v4.067c-.559-.152-1.169-.203-1.779-.203-2.339 0-4.373 1.22-5.593 3.05v16.167h-4.728V28.348a2.364 2.364 0 0 1 4.728 0v.229c1.627-1.83 3.661-2.95 5.847-2.95zm-39.597 11.794c0-7.066 4.779-11.845 11.845-11.845 7.016 0 11.846 4.779 11.846 11.845s-4.83 11.846-11.846 11.846c-7.066 0-11.845-4.78-11.845-11.846m4.88 0c0 4.525 2.797 7.677 6.965 7.677 4.067 0 6.965-3.152 6.965-7.677s-2.898-7.676-6.965-7.676c-4.168 0-6.965 3.152-6.965 7.676m-21.876-7.727v-3.711h2.796V23.34a2.44 2.44 0 0 1 4.881 0v2.644h5.592v3.71h-5.592v11.643c0 2.338 1.423 3.965 3.711 3.965.661 0 1.322-.152 1.881-.457v3.914c-.864.407-1.83.509-2.745.509-4.779 0-7.728-3.101-7.728-7.931V29.695zm-3.757-1.271-2.695 2.745c-.915-.966-2.796-1.728-4.168-1.728-2.034 0-2.898 1.525-2.898 2.745 0 1.78 1.881 2.44 4.321 3.457 2.949 1.22 5.948 2.694 5.948 6.558 0 3.61-2.643 7.067-7.829 7.067-3.101 0-5.948-1.17-7.829-3.203l2.694-2.745c1.17 1.321 3.102 2.084 4.83 2.084 2.491 0 3.457-1.678 3.457-3 0-1.576-1.373-2.236-4.169-3.355-2.999-1.17-6.1-2.643-6.1-6.71 0-3.508 2.338-6.762 7.168-6.762 2.745 0 5.44 1.017 7.27 2.847"></path><path d="m184.885 28.424-2.695 2.745c-.915-.966-2.796-1.728-4.168-1.728-2.034 0-2.898 1.525-2.898 2.745 0 1.78 1.881 2.44 4.321 3.457 2.949 1.22 5.948 2.694 5.948 6.558 0 3.61-2.643 7.067-7.829 7.067-3.101 0-5.948-1.17-7.829-3.203l2.694-2.745c1.17 1.321 3.102 2.084 4.83 2.084 2.491 0 3.457-1.678 3.457-3 0-1.576-1.373-2.236-4.169-3.355-2.999-1.17-6.1-2.643-6.1-6.71 0-3.508 2.338-6.762 7.168-6.762 2.745 0 5.44 1.017 7.27 2.847M166.18 38.795h-16.624c.457 3.813 3.101 6.304 7.27 6.304 2.338 0 4.27-.813 5.541-2.186l2.796 2.949c-2.084 2.185-5.033 3.406-8.642 3.406-7.118 0-11.947-4.728-11.947-11.998 0-6.914 4.372-11.693 11.184-11.693 7.067 0 10.422 5.033 10.422 13.218m-10.422-9.15c-3.355 0-5.694 2.236-6.202 5.795h11.896c-.407-3.508-2.339-5.796-5.694-5.796zm-16.466-3.661a2.384 2.384 0 0 1 2.189 3.328l-7.562 17.541a3.324 3.324 0 0 1-6.103 0l-7.563-17.541a2.385 2.385 0 1 1 4.402-1.831l6.212 15.483 6.212-15.484a2.385 2.385 0 0 1 2.213-1.496m-21.965 12.811h-16.624c.458 3.813 3.101 6.304 7.27 6.304 2.339 0 4.271-.813 5.542-2.186l2.796 2.949c-2.085 2.185-5.033 3.406-8.643 3.406-7.117 0-11.947-4.728-11.947-11.998 0-6.914 4.372-11.693 11.185-11.693 7.066 0 10.421 5.033 10.421 13.218m-10.421-9.15c-3.356 0-5.694 2.236-6.203 5.795h11.896c-.406-3.508-2.338-5.796-5.693-5.796zM78.892 49.268c-3.203 0-6.914-.763-9.456-3.407V13.096a2.364 2.364 0 0 1 4.728 0v14.159c1.677-1.068 3.71-1.678 6.05-1.678 6.66 0 11.235 4.779 11.235 11.896 0 7.016-4.474 11.795-12.557 11.795m7.676-11.744c0-4.626-2.847-7.778-7.117-7.778-2.034 0-4.016.762-5.287 2.338v11.49c1.372 1.118 3.304 1.525 5.083 1.525 4.678 0 7.321-3.152 7.321-7.575"></path></g></svg>
