<?xml version="1.0" encoding="utf-8"?>
<!-- Generator: Adobe Illustrator 27.3.1, SVG Export Plug-In . SVG Version: 6.00 Build 0)  -->
<svg version="1.1" id="Ebene_1" xmlns="http://www.w3.org/2000/svg" xmlns:xlink="http://www.w3.org/1999/xlink" x="0px" y="0px"
	 viewBox="0 0 592.44 90.71" style="enable-background:new 0 0 592.44 90.71;" xml:space="preserve">
<style type="text/css">
	.st0{clip-path:url(#SVGID_00000060745864886627746570000014654070785151936141_);fill:#EE8449;}
	.st1{clip-path:url(#SVGID_00000060745864886627746570000014654070785151936141_);fill:#FFFFFF;}
</style>
<g>
	<defs>
		<rect id="SVGID_1_" y="0" width="592.44" height="90.71"/>
	</defs>
	<clipPath id="SVGID_00000128459662315993486840000004622164466261626539_">
		<use xlink:href="#SVGID_1_"  style="overflow:visible;"/>
	</clipPath>
	<path style="clip-path:url(#SVGID_00000128459662315993486840000004622164466261626539_);fill:#EE8449;" d="M337.01,77.4
		c-6.76,0-11.78-1.56-15.16-2.77V63.8h6.23v6.15c2.16,0.61,5.28,1.39,8.41,1.39c5.37,0,8.41-2.33,8.41-6.85
		c0-4.67-5.37-5.55-10.74-7.27c-5.9-1.91-12.48-4.07-12.48-12.3c0-8.41,7.02-12.57,15.25-12.57c6.41,0,11.51,1.56,14.29,2.69v10.04
		h-6.23v-5.63c-1.99-0.53-4.6-1.04-7.53-1.04c-4.85,0-7.62,2.34-7.62,6.06c0,3.9,4.76,5.02,9.71,6.58
		c6.23,1.99,13.6,4.16,13.6,12.99C353.13,73.06,345.93,77.4,337.01,77.4 M318.67,41.01v-8.23c-0.61-0.17-1.65-0.44-2.95-0.44
		c-5.98,0-9.88,3.37-12.3,9.01v-8.14h-13.78v5.81h6.32v31.7h-6.32v5.81h22.43v-5.81h-8.32V55.48c0-9.27,4.5-14.81,11.6-14.81
		c1.14,0,2.51,0.09,3.3,0.35H318.67z M285.82,56.35h-28.84c0.35,10.74,4.93,15.08,11.25,15.08c5.72,0,9.27-3.46,9.27-7.71h7.71
		c0,7.88-6.23,13.69-16.89,13.69c-11.25,0-19.4-7.19-19.4-22.52c0-14.2,8.14-22.52,19.4-22.52c11.18,0,17.5,8.23,17.5,22.17V56.35z
		 M278.02,51.32c0-8.48-3.21-13.25-9.79-13.25c-6.41,0-10.39,4.42-11.17,13.25H278.02z M247.88,70.73h-4.86L226.4,53.49l16.03-14.46
		h4.58v-5.81h-20.52v5.81h6.32l-14.73,13.6V14.17h-14.11v5.79h6.23v50.76h-6.23v5.79h20.36v-5.79h-6.25V55.14l19.83,21.38h9.97
		V70.73z M202.05,62.06c0,9.71-6.85,15.33-16.62,15.33c-11.34,0-18.97-7.28-18.97-22.52c0-14.46,9.27-22.52,20.52-22.52
		c8.67,0,14.64,3.55,14.64,3.55v12.04h-6.14v-7.71c0,0-3.63-1.65-8.41-1.65c-6.76,0-12.46,5.11-12.46,16.29
		c0,11.34,4.07,16.45,10.65,16.45c5.55,0,8.92-3.64,8.92-9.27h7.88V62.06z M165.73,76.52v-5.79h-6.32V47.17
		c0-10.83-6.58-14.81-16.03-14.81c-7.63,0-14.9,3.55-14.9,3.55v9.87h6.23v-5.46c0,0,4.15-1.91,8.65-1.91c5.11,0,8.23,2.34,8.23,8.92
		v4.16h-10.04c-9.79,0-16.11,4.33-16.11,13.25c0,8.49,5.88,12.65,13.76,12.65c5.28,0,10.22-2.51,13.25-6.58v5.72h13.25H165.73z
		 M151.62,56.78v3.3c0,6.58-4.25,11.34-10.74,11.34c-4.6,0-7.28-2.6-7.28-6.93c0-5.28,3.2-7.71,8.65-7.71h9.36H151.62z M123.7,41.01
		c-0.79-0.26-2.16-0.35-3.3-0.35c-7.11,0-11.6,5.55-11.6,14.81v15.24h8.32v5.81H94.68v-5.81H101v-31.7h-6.32v-5.81h13.78v8.14
		c2.42-5.63,6.32-9.01,12.3-9.01c1.3,0,2.34,0.26,2.95,0.44v8.23H123.7z M90.24,76.61v-6.33c-1.12,0.18-3.56,0.61-5.72,0.61
		c-3.82,0-5.81-2.25-5.81-7.71V39.01h11.17v-5.81H78.71V19.87l-7.79,1.21v12.13H62.6v5.81h8.32v24.17c0,10.99,5.79,14.2,12.64,14.2
		c2.86,0,5.46-0.6,6.67-0.77H90.24z M67.01,76.52H46.49v-5.79h5.88l-11.78-19.4l-11.87,19.4h5.46v5.79H14.17v-5.79h5.37l16.2-26.42
		l-14.9-24.35h-5.81v-5.79h20.53v5.79h-5.55L40.59,37.2l10.48-17.24h-4.93v-5.79h20.01v5.79h-5.9L45.28,44.31l16.27,26.42h5.46
		V76.52z"/>
	<path style="clip-path:url(#SVGID_00000128459662315993486840000004622164466261626539_);fill:#FFFFFF;" d="M383.06,47.72
		c0,3.45-1.12,5.63-3.57,5.63c-2.59,0-3.78-1.9-3.78-5.63c0-3.59,1.12-5.63,3.89-5.63C381.87,42.09,383.06,43.54,383.06,47.72
		 M387.93,47.72c0-6.49-3.25-8.98-7.17-8.98c-1.89,0-3.43,0.55-4.58,1.59v-8.84h-4.72v24.86h2.38l1.29-2.11
		c1.15,1.52,2.9,2.45,5.46,2.45C384.29,56.7,387.93,53.83,387.93,47.72 M400.56,56.76l6.55-17.68h-5.29l-3.43,11.6l-3.74-11.6h-5.28
		l6.54,16.75l-0.1,0.31c-0.84,2.45-2.98,3.25-6.05,3.25v3.87C395.27,63.26,398.63,61.94,400.56,56.76 M444.96,38.8l0-8.78
		L407.1,75.15v8.79L444.96,38.8z M463.69,31.47v-8.79l-37.86,45.13v8.79L463.69,31.47z M486.16,57.26c0,2.09-0.31,7.29-3.19,10.2
		c-2.24,2.27-5.18,2.35-8.25,2.35h-2.05V45.84h2.23c2.36,0,3.56-0.03,4.83,0.33C485.32,47.75,486.16,53.8,486.16,57.26
		 M491.21,70.51c2.61-3.38,3.93-7.84,3.93-13.25c0-3.75-0.82-10.66-6.33-14.77c-3.01-2.25-7.3-3.39-12.75-3.39h-12.37v37.44h11.67
		c3.69,0,5.22-0.15,6.61-0.41C485.71,75.44,488.9,73.49,491.21,70.51 M537.09,76.54l9.33-37.44h-8.23l-5.56,25.77l-6.11-25.77h-9.24
		l-6.36,25.83l-5.3-25.83h-8.84l8.92,37.44h9.07l6.79-26.6l6.17,26.6H537.09z M557.57,49.35c0-2.82,2.26-4.65,5.76-4.65
		c3.47,0,5.38,1.78,5.66,5.28l0.02,0.29h8.24v-0.32c0-1.28,0-4.27-2.17-6.99c-3.21-4.01-8.54-4.61-11.43-4.61
		c-10.99,0-14.91,6.12-14.91,11.86c0,4.93,2.32,8.56,13.84,11.41c4.64,1.1,6.76,1.6,6.76,4.61c0,2.92-2.62,4.8-6.68,4.8
		c-2.74,0-4.61-0.87-5.58-2.6c-0.8-1.42-0.79-3.07-0.79-3.95v-0.39h-8.4l-0.33,0.02l0,0.32c0.05,3.52,0.18,12.87,14.63,12.87
		c9.55,0,16-4.87,16.07-12.13v-0.22c-0.07-7.53-7.2-9.22-12.92-10.59l-0.29-0.07C559.91,53.01,557.57,52.43,557.57,49.35"/>
</g>
</svg>
